<svg width="56" height="56" viewBox="0 0 56 56" fill="none" xmlns="http://www.w3.org/2000/svg">
<path d="M23.6018 27.2366C24.7712 28.406 26.3429 29.0571 27.9968 29.0571C29.6512 29.0571 31.2224 28.4064 32.3918 27.2366C33.5613 26.0671 34.2123 24.4955 34.2123 22.8415C34.2123 21.1872 33.5613 19.616 32.3918 18.4465C31.2224 17.277 29.6512 16.626 27.9968 16.626C26.3424 16.626 24.7712 17.277 23.6018 18.4465C22.4323 19.616 21.7813 21.1876 21.7813 22.8415C21.7817 24.4955 22.4323 26.0671 23.6018 27.2366Z" fill="white"/>
<path d="M17.6141 24.6255C18.1634 24.6255 18.7112 24.5535 19.2411 24.4097C19.5867 24.3163 19.9236 24.1922 20.2477 24.0405C20.1869 23.6441 20.1564 23.2431 20.1564 22.8417C20.1564 20.755 20.9777 18.7729 22.4531 17.2974C22.7768 16.9738 23.1285 16.6786 23.5035 16.4157C23.1112 15.2553 22.3858 14.2393 21.4159 13.4898C20.3253 12.6474 18.9918 12.1943 17.614 12.1943C15.9596 12.1943 14.3884 12.845 13.219 14.0148C12.0495 15.1843 11.3984 16.7559 11.3984 18.4099C11.3984 20.0643 12.0491 21.6354 13.219 22.8049C14.3889 23.9748 15.9601 24.6255 17.6141 24.6255Z" fill="white"/>
<path d="M35.8355 22.8427C35.8355 23.2441 35.8053 23.645 35.7441 24.0415C36.0682 24.1932 36.4051 24.3172 36.7507 24.4106C37.2807 24.5545 37.8284 24.6264 38.3778 24.6264C40.0321 24.6264 41.6033 23.9757 42.7728 22.8059C43.9427 21.6364 44.5933 20.0652 44.5933 18.4109C44.5933 16.7565 43.9427 15.1853 42.7728 14.0158C41.6033 12.8463 40.0321 12.1953 38.3778 12.1953C36.9999 12.1953 35.6664 12.6484 34.5759 13.4908C33.6061 14.2403 32.8803 15.2568 32.4883 16.4167C32.8632 16.6792 33.215 16.9747 33.5387 17.2984C35.014 18.7737 35.8355 20.7563 35.8355 22.8427Z" fill="white"/>
<path d="M19.8359 31.064C21.0736 30.3343 22.4683 29.8305 23.8705 29.5104C23.3563 29.1917 22.8796 28.8139 22.4518 28.386C21.9252 27.8594 21.4746 27.2592 21.1162 26.6061C20.6102 26.4998 20.0989 26.418 19.585 26.3601C18.9306 26.2861 18.2713 26.251 17.6123 26.251C15.1461 26.251 12.4236 26.764 10.2777 28.0294C8.89983 28.8417 7.46875 30.1756 7.46875 31.8994L7.46875 36.3941C7.46875 37.2788 9.31487 38.0142 9.97014 38.251C10.8903 38.5838 11.8635 38.8145 12.8262 38.9823C13.9481 39.1783 15.089 39.2919 16.2271 39.3428L16.2271 36.3313C16.2271 33.9882 17.9261 32.1905 19.8359 31.0641V31.064Z" fill="white"/>
<path d="M35.3298 32.462C33.1844 31.1966 30.4614 30.6836 27.9951 30.6836C25.5289 30.6836 22.806 31.1966 20.6605 32.462C19.2826 33.2743 17.8516 34.6082 17.8516 36.332L17.8516 40.8267C17.8516 41.7515 19.8288 42.5046 20.5117 42.7411C21.5877 43.1132 22.734 43.355 23.8597 43.5183C25.2259 43.7163 26.6153 43.8039 27.9951 43.8039C29.375 43.8039 30.7644 43.7167 32.1306 43.5183C33.2558 43.355 34.4025 43.1132 35.4786 42.7411C36.1615 42.5051 38.1387 41.7519 38.1387 40.8267L38.1387 36.332C38.1387 34.6087 36.7072 33.2742 35.3298 32.462Z" fill="white"/>
<path d="M45.7139 28.0294C43.5685 26.764 40.8455 26.251 38.3793 26.251C37.7208 26.251 37.0614 26.2865 36.4066 26.3601C35.8928 26.418 35.3814 26.4998 34.8754 26.6061C34.5174 27.2592 34.0664 27.8595 33.5398 28.386C33.1115 28.8139 32.6349 29.1917 32.1211 29.5109C33.5229 29.8304 34.9181 30.3343 36.1553 31.064C38.0655 32.1905 39.7644 33.9882 39.7644 36.3312L39.7644 39.3427C40.9021 39.2918 42.043 39.1781 43.1649 38.9822C44.1277 38.8144 45.1012 38.5837 46.0209 38.2509C46.6766 38.0141 48.5223 37.2787 48.5223 36.394L48.5223 31.8993C48.5227 30.1759 47.0916 28.8419 45.7138 28.0293L45.7139 28.0294Z" fill="white"/>
</svg>
