<svg width="56" height="56" viewBox="0 0 56 56" fill="none" xmlns="http://www.w3.org/2000/svg">
<path d="M8.94937 36.962C10.493 38.3334 12.2446 39.451 14.1387 40.273L24.0414 34.0547C25.0508 33.4273 26.2424 33.1587 27.4233 33.2925C28.6043 33.4263 29.7056 33.9547 30.549 34.792L33.8787 38.1217C38.8697 34.442 41.9987 28.555 41.9987 22.1663C41.9987 11.23 33.1017 2.33301 22.1654 2.33301C11.229 2.33301 2.33203 11.23 2.33203 22.1663C2.33249 24.9592 2.9221 27.7206 4.06236 30.2701C5.20262 32.8196 6.86787 35.0999 8.94937 36.962ZM23.052 23.9163H21.2787C20.0394 23.918 18.8445 23.4549 17.93 22.6184C17.0156 21.7819 16.4481 20.6329 16.3396 19.3983C16.2312 18.1637 16.5897 16.9334 17.3443 15.9502C18.0989 14.9671 19.1947 14.3028 20.4154 14.0883V12.2497C20.4154 11.7855 20.5997 11.3404 20.9279 11.0122C21.2561 10.684 21.7012 10.4997 22.1654 10.4997C22.6295 10.4997 23.0746 10.684 23.4028 11.0122C23.731 11.3404 23.9154 11.7855 23.9154 12.2497V13.9997H26.2487C26.7128 13.9997 27.1579 14.184 27.4861 14.5122C27.8143 14.8404 27.9987 15.2855 27.9987 15.7497C27.9987 16.2138 27.8143 16.6589 27.4861 16.9871C27.1579 17.3153 26.7128 17.4997 26.2487 17.4997H21.2787C20.895 17.4997 20.5271 17.6521 20.2558 17.9234C19.9844 18.1947 19.832 18.5627 19.832 18.9463C19.832 19.7677 20.4807 20.4163 21.2787 20.4163H23.052C24.2914 20.4147 25.4863 20.8778 26.4007 21.7143C27.3152 22.5508 27.8826 23.6998 27.9911 24.9344C28.0995 26.169 27.7411 27.3993 26.9865 28.3824C26.2319 29.3656 25.136 30.0299 23.9154 30.2443V32.0807C23.9154 32.5448 23.731 32.9899 23.4028 33.3181C23.0746 33.6463 22.6295 33.8307 22.1654 33.8307C21.7012 33.8307 21.2561 33.6463 20.9279 33.3181C20.5997 32.9899 20.4154 32.5448 20.4154 32.0807V30.333H18.082C17.6179 30.333 17.1728 30.1486 16.8446 29.8204C16.5164 29.4923 16.332 29.0471 16.332 28.583C16.332 28.1189 16.5164 27.6738 16.8446 27.3456C17.1728 27.0174 17.6179 26.833 18.082 26.833H23.052C23.4357 26.833 23.8037 26.6806 24.075 26.4093C24.3463 26.138 24.4987 25.77 24.4987 25.3863C24.5009 25.1947 24.4651 25.0044 24.3934 24.8266C24.3218 24.6488 24.2157 24.487 24.0812 24.3504C23.9468 24.2137 23.7866 24.105 23.61 24.0306C23.4333 23.9561 23.2437 23.9173 23.052 23.9163Z" fill="white"/>
<path d="M53.6683 28H44.335C43.8736 28.0001 43.4225 28.137 43.0389 28.3934C42.6553 28.6498 42.3563 29.0142 42.1797 29.4405C42.0032 29.8668 41.957 30.3358 42.047 30.7884C42.1369 31.241 42.3591 31.6567 42.6853 31.983L45.7023 35L36.1683 44.534L28.4846 36.8503C28.1128 36.4788 27.6264 36.2437 27.1042 36.1831C26.582 36.1225 26.0547 36.2401 25.6076 36.5167L1.10765 51.6833C0.600664 52.0176 0.243951 52.5363 0.113272 53.1293C-0.0174069 53.7223 0.0882436 54.3429 0.407784 54.8593C0.727324 55.3756 1.23558 55.7471 1.82459 55.8947C2.41361 56.0424 3.03699 55.9546 3.56231 55.65L26.4896 41.4563L34.5163 49.483C34.7328 49.6999 34.99 49.8719 35.273 49.9893C35.5561 50.1067 35.8595 50.1671 36.166 50.1671C36.4724 50.1671 36.7759 50.1067 37.0589 49.9893C37.342 49.8719 37.5991 49.6999 37.8156 49.483L49.0016 38.2993L52.0186 41.3163C52.345 41.6426 52.7607 41.8647 53.2132 41.9547C53.6658 42.0447 54.1349 41.9985 54.5612 41.8219C54.9875 41.6454 55.3519 41.3464 55.6082 40.9627C55.8646 40.5791 56.0015 40.1281 56.0016 39.6667V30.3333C56.0016 29.7145 55.7558 29.121 55.3182 28.6834C54.8806 28.2458 54.2871 28 53.6683 28Z" fill="white"/>
</svg>
