<svg width="63" height="62" viewBox="0 0 63 62" fill="none" xmlns="http://www.w3.org/2000/svg">
<path d="M13.1533 5.51682C12.5929 5.51682 12.1338 5.97546 12.1338 6.5363L12.1338 55.4607C12.1338 56.0211 12.5924 56.4802 13.1533 56.4802L49.8466 56.4802C50.407 56.4802 50.8661 56.0216 50.8661 55.4607L50.8661 6.53511C50.8661 5.97475 50.4074 5.51563 49.8466 5.51563L13.1533 5.51682ZM23.6723 17.4113L19.5341 17.4113C18.2599 17.4113 17.2306 16.3821 17.2306 15.1078L17.2306 13.3852C17.2306 12.1213 18.2599 11.0817 19.5341 11.0817L20.5839 11.0817L20.5839 10.6128C20.5839 10.0525 21.0426 9.59334 21.6034 9.59334C22.1638 9.59334 22.6229 10.052 22.6229 10.6128L22.6229 11.0817L23.6727 11.0817C24.9367 11.0817 25.9762 12.1213 25.9762 13.3852C25.9762 13.9456 25.5175 14.4047 24.9567 14.4047C24.3861 14.4047 23.9372 13.9461 23.9372 13.3852C23.9372 13.2424 23.815 13.1202 23.6722 13.1202L19.534 13.1202C19.3913 13.1202 19.269 13.2424 19.269 13.3852L19.269 15.1078C19.269 15.2609 19.3913 15.3729 19.534 15.3729L23.6722 15.3729C24.9362 15.3729 25.9757 16.4021 25.9757 17.6764L25.9757 19.399C25.9757 20.6732 24.9361 21.7025 23.6722 21.7025L22.6224 21.7025L22.6224 22.1714C22.6224 22.742 22.1637 23.1909 21.6029 23.1909C21.0425 23.1909 20.5834 22.7425 20.5834 22.1714L20.5834 21.7025L19.5336 21.7025C18.2594 21.7025 17.2301 20.6732 17.2301 19.399C17.2301 18.8386 17.6888 18.3795 18.2496 18.3795C18.81 18.3795 19.2691 18.8381 19.2691 19.399C19.2691 19.5418 19.3913 19.664 19.5341 19.664L23.6723 19.664C23.815 19.664 23.9373 19.5418 23.9373 19.399L23.9373 17.6764C23.9373 17.5336 23.8151 17.4113 23.6723 17.4113ZM44.5571 49.8847L18.4442 49.8847C17.8838 49.8847 17.4247 49.4363 17.4247 48.8652C17.4247 48.3049 17.8833 47.8457 18.4442 47.8457L44.5571 47.8457C45.1175 47.8457 45.5766 48.3044 45.5766 48.8652C45.5761 49.4363 45.1175 49.8847 44.5571 49.8847ZM44.5571 43.0353L18.4442 43.0353C17.8838 43.0353 17.4247 42.5766 17.4247 42.0158C17.4247 41.4554 17.8833 40.9963 18.4442 40.9963L44.5571 40.9963C45.1175 40.9963 45.5766 41.455 45.5766 42.0158C45.5761 42.5766 45.1175 43.0353 44.5571 43.0353ZM44.5571 36.1859L18.4442 36.1859C17.8838 36.1859 17.4247 35.7272 17.4247 35.1664C17.4247 34.606 17.8833 34.1469 18.4442 34.1469L44.5571 34.1469C45.1175 34.1469 45.5766 34.6055 45.5766 35.1664C45.5761 35.7272 45.1175 36.1859 44.5571 36.1859ZM44.5571 29.3262L18.4442 29.3262C17.8838 29.3262 17.4247 28.8778 17.4247 28.3067C17.4247 27.7463 17.8833 27.2872 18.4442 27.2872L44.5571 27.2872C45.1175 27.2872 45.5766 27.7458 45.5766 28.3067C45.5761 28.8778 45.1175 29.3262 44.5571 29.3262ZM44.5571 23.1902L31.1949 23.1902C30.6345 23.1902 30.1754 22.7418 30.1754 22.1707C30.1754 21.6103 30.634 21.1512 31.1949 21.1512L44.5571 21.1512C45.1175 21.1512 45.5766 21.6099 45.5766 22.1707C45.5761 22.7418 45.1175 23.1902 44.5571 23.1902Z" fill="white"/>
<rect x="15.1897" y="25.1797" width="32.9411" height="27.6957" fill="white"/>
<rect x="28.8276" y="15.1094" width="19.3031" height="10.0712" fill="white"/>
</svg>
