<svg width="58" height="58" viewBox="0 0 58 58" fill="none" xmlns="http://www.w3.org/2000/svg">
<g clip-path="url(#clip0_3552_30238)">
<path d="M1.77811 48.1144C4.63105 48.5709 8.68223 48.3997 12.5052 45.4897C15.4151 47.2585 18.8387 48.2856 22.4905 48.2856H37.7252C48.3381 48.2856 57.0111 39.6127 57.0111 28.9998C57.0111 18.3868 48.3381 9.71387 37.7252 9.71387H22.4905C11.8775 9.71387 3.20458 18.3868 3.20458 28.9998C3.20458 33.1651 4.51703 36.988 6.79938 40.1262C5.88649 42.1803 4.23173 44.9192 1.54997 46.2886C0.693896 46.6879 0.864977 47.9431 1.77806 48.1144H1.77811ZM41.0916 25.8614C41.3199 25.7474 41.6052 25.6902 41.8335 25.6331C42.1188 25.5761 42.3471 25.5761 42.6324 25.5761C44.8577 25.5761 46.6265 27.3449 46.6265 29.5702C46.6265 31.7956 44.8577 33.5644 42.6324 33.5644C42.3471 33.5644 42.0618 33.5644 41.8335 33.5073C41.5482 33.4503 41.3199 33.3933 41.0916 33.2791C39.6652 32.6515 38.638 31.225 38.638 29.5702C38.6382 27.9155 39.6652 26.432 41.0916 25.8614ZM30.3075 25.2908C32.5329 25.2908 34.3016 27.0596 34.3016 29.285C34.3016 31.5103 32.5329 33.2791 30.3075 33.2791C28.0822 33.2791 26.3134 31.5103 26.3134 29.285C26.3134 27.0596 28.1392 25.2908 30.3075 25.2908ZM14.0458 28.5431C14.217 27.2306 15.0157 26.0895 16.0998 25.5189C16.6704 25.2336 17.298 25.0623 17.9829 25.0623C20.2082 25.0623 21.977 26.8311 21.977 29.0564C21.977 31.2818 20.2082 33.0506 17.9829 33.0506C17.2983 33.0506 16.6134 32.8793 16.0998 32.594C14.9586 31.9664 14.2168 30.8823 14.0458 29.5698V28.5431Z" fill="white"/>
</g>
<defs>
<clipPath id="clip0_3552_30238">
<rect width="57.0588" height="57.0588" fill="white" transform="translate(0.46875 0.470703)"/>
</clipPath>
</defs>
</svg>
