<svg width="53" height="52" viewBox="0 0 53 52" fill="none" xmlns="http://www.w3.org/2000/svg">
<g clip-path="url(#clip0_251_10091)">
<rect x="12.7683" y="11" width="11.5118" height="6.00615" fill="white"/>
<rect x="4.67969" y="16.457" width="19.6451" height="16.5169" fill="white"/>
<path d="M3.59529 3.85227C3.26111 3.85227 2.9873 4.1258 2.9873 4.46026L2.98731 33.6374C2.98731 33.9716 3.26083 34.2454 3.5953 34.2454L25.4781 34.2454C25.8123 34.2454 26.0861 33.9718 26.0861 33.6374L26.0861 4.45955C26.0861 4.12537 25.8126 3.85156 25.4781 3.85156L3.59529 3.85227ZM9.86852 10.9458L7.40064 10.9458C6.64073 10.9458 6.02691 10.332 6.02691 9.57209L6.02691 8.54476C6.02691 7.79097 6.64074 7.17103 7.40064 7.17103L8.02672 7.17103L8.02672 6.89138C8.02672 6.5572 8.30024 6.28339 8.63471 6.28339C8.96889 6.28339 9.2427 6.55691 9.2427 6.89138L9.2427 7.17103L9.86877 7.17103C10.6226 7.17103 11.2425 7.79098 11.2425 8.54476C11.2425 8.87894 10.969 9.15275 10.6345 9.15275C10.2942 9.15275 10.0265 8.87923 10.0265 8.54476C10.0265 8.45962 9.95363 8.38671 9.86847 8.38671L7.4006 8.38671C7.31546 8.38671 7.24255 8.45961 7.24255 8.54476L7.24255 9.57209C7.24255 9.66335 7.31545 9.73014 7.4006 9.73014L9.86847 9.73014C10.6223 9.73014 11.2422 10.344 11.2422 11.1039L11.2422 12.1312C11.2422 12.8911 10.6223 13.5049 9.86847 13.5049L9.2424 13.5049L9.2424 13.7846C9.2424 14.1249 8.96888 14.3926 8.63441 14.3926C8.30023 14.3926 8.02642 14.1252 8.02642 13.7846L8.02642 13.5049L7.40034 13.5049C6.64043 13.5049 6.02661 12.8911 6.02661 12.1312C6.02661 11.797 6.30013 11.5232 6.6346 11.5232C6.96878 11.5232 7.24259 11.7967 7.24259 12.1312C7.24259 12.2163 7.31549 12.2892 7.40064 12.2892L9.86852 12.2892C9.95366 12.2892 10.0266 12.2163 10.0266 12.1312L10.0266 11.1039C10.0266 11.0187 9.95367 10.9458 9.86852 10.9458ZM22.3236 30.312L6.75064 30.312C6.41646 30.312 6.14265 30.0446 6.14265 29.704C6.14265 29.3698 6.41617 29.096 6.75064 29.096L22.3236 29.096C22.6578 29.096 22.9316 29.3695 22.9316 29.704C22.9313 30.0446 22.6578 30.312 22.3236 30.312ZM22.3236 26.2272L6.75064 26.2272C6.41646 26.2272 6.14265 25.9537 6.14265 25.6192C6.14265 25.285 6.41617 25.0112 6.75064 25.0112L22.3236 25.0112C22.6578 25.0112 22.9316 25.2847 22.9316 25.6192C22.9313 25.9537 22.6578 26.2272 22.3236 26.2272ZM22.3236 22.1424L6.75064 22.1424C6.41646 22.1424 6.14265 21.8689 6.14265 21.5344C6.14265 21.2002 6.41617 20.9264 6.75064 20.9264L22.3236 20.9264C22.6578 20.9264 22.9316 21.1999 22.9316 21.5344C22.9313 21.8689 22.6578 22.1424 22.3236 22.1424ZM22.3236 18.0515L6.75064 18.0515C6.41646 18.0515 6.14265 17.7841 6.14265 17.4435C6.14265 17.1093 6.41617 16.8355 6.75064 16.8355L22.3236 16.8355C22.6578 16.8355 22.9316 17.109 22.9316 17.4435C22.9313 17.7841 22.6578 18.0515 22.3236 18.0515ZM22.3236 14.3922L14.3548 14.3922C14.0206 14.3922 13.7468 14.1247 13.7468 13.7842C13.7468 13.45 14.0203 13.1762 14.3548 13.1762L22.3236 13.1762C22.6578 13.1762 22.9316 13.4497 22.9316 13.7842C22.9313 14.1247 22.6578 14.3922 22.3236 14.3922Z" fill="white"/>
<path d="M44.3415 40.8404C42.3443 40.8404 40.5428 41.8625 39.2631 43.501C38.3022 42.2817 37.0521 41.4084 35.6459 41.0499C36.9256 42.2279 37.0148 42.7792 37.0199 42.8856V42.9056C36.9919 43.0472 36.8841 43.1938 36.7258 43.3322C36.544 43.493 36.29 43.6463 35.9973 43.777C35.4615 44.0187 34.7966 44.1853 34.2049 44.1853C33.6028 44.1853 32.9236 44.0136 32.383 43.7656C32.0921 43.6317 31.8409 43.4768 31.6641 43.3152C31.5161 43.1803 31.416 43.0421 31.39 42.9064C31.39 42.9056 31.3881 42.892 31.3913 42.8662C31.4038 42.7224 31.547 42.1699 32.7652 41.0504C29.5763 41.8633 27.1787 45.3202 27.1787 49.4594C27.1787 51.0428 28.2274 52.3233 29.5207 52.3233H38.8877C39.0447 52.3233 39.1975 52.3041 39.3449 52.2682C39.4485 52.2852 39.5531 52.2967 39.659 52.2967H49.0246C50.3195 52.2967 51.3666 51.0153 51.3666 49.4328C51.3663 44.6886 48.2205 40.8398 44.3422 40.8398L44.3415 40.8404Z" fill="white"/>
<path d="M51.4878 31.8026L45.8256 28.055C45.7525 28.0058 45.6617 27.989 45.5749 28.0071L39.3033 29.3313C39.1766 29.3579 39.0776 29.4561 39.0488 29.5831L39.011 29.7526C38.9815 29.8862 39.0368 30.0244 39.1516 30.1L41.777 31.8378L41.6623 32.3568C40.6788 33.1441 40.0466 34.353 40.0466 35.7102C40.0466 38.0818 41.97 40.0061 44.3412 40.0061C46.7124 40.0061 48.636 38.0815 48.636 35.7102C48.636 34.8258 48.3677 34.0044 47.9097 33.3209L47.9161 33.2927L49.6102 32.9352C49.821 33.233 49.9583 33.5945 49.9929 34.055C49.821 34.1444 49.7017 34.322 49.7017 34.5288C49.7017 34.7026 49.7861 34.8556 49.9147 34.9533C49.7691 35.6957 49.5748 37.0605 49.962 37.6655C50.0765 37.8433 50.2381 37.9575 50.4294 37.9935C50.4443 37.9961 50.4598 37.998 50.4747 37.998C50.5873 37.998 50.6876 37.9181 50.7097 37.8029C50.7342 37.673 50.6488 37.5476 50.5189 37.5226C50.4771 37.5146 50.422 37.4944 50.3661 37.4068C50.229 37.1934 50.1973 36.7723 50.2226 36.2964C50.3405 36.665 50.5221 36.9969 50.8021 37.1814C50.913 37.2546 51.0616 37.2231 51.1337 37.113C51.2064 37.0028 51.176 36.8537 51.0656 36.7813C50.6887 36.5332 50.53 35.6834 50.496 34.9938C50.6602 34.9025 50.7725 34.7292 50.7725 34.5283C50.7725 34.3174 50.6493 34.1373 50.4728 34.0502C50.4411 33.5594 50.3134 33.1591 50.1167 32.8275L51.336 32.5701C51.463 32.5435 51.562 32.4447 51.5905 32.3183L51.6283 32.1488C51.6575 32.0162 51.6017 31.8778 51.4877 31.8028L51.4878 31.8026ZM44.9961 30.5059C45.0017 30.4625 45.0456 30.4271 45.1273 30.4103C45.2902 30.3757 45.542 30.4271 45.6894 30.5245C45.7634 30.5735 45.797 30.6246 45.7914 30.668L45.7674 30.7869C45.7618 30.8303 45.7182 30.8655 45.637 30.8822C45.4733 30.9171 45.2223 30.8657 45.0746 30.7686C45.0009 30.7193 44.9671 30.6682 44.9726 30.6251L44.9961 30.5059Z" fill="white"/>
<path d="M27.2795 36.9234C27.5419 36.7504 27.712 36.4393 27.823 36.0935C27.8467 36.5393 27.8163 36.9343 27.6883 37.1342C27.6358 37.2162 27.5839 37.2353 27.5446 37.2431C27.4229 37.2662 27.3428 37.3836 27.366 37.5055C27.3872 37.6136 27.4812 37.6884 27.5863 37.6884C27.6002 37.6884 27.6146 37.6865 27.6289 37.6841C27.8083 37.65 27.9598 37.543 28.0668 37.3764C28.4296 36.8092 28.2478 35.5303 28.1115 34.8342C28.2318 34.7424 28.3111 34.5995 28.3111 34.4361C28.3111 34.2418 28.1996 34.0759 28.038 33.9924C28.0705 33.5604 28.1996 33.2218 28.3965 32.9424L29.9845 33.278L30.1072 33.8335C30.1237 33.9067 30.1557 33.9761 30.2036 34.0416C29.9813 34.5638 29.8581 35.1388 29.8581 35.7419C29.8581 35.7419 29.8549 39.548 29.2587 40.0913H39.1544C38.5707 39.5605 38.5553 35.916 38.5553 35.7496V35.7421C38.5553 33.9663 37.4888 32.4412 35.9636 31.7654L38.1994 30.2855C38.3069 30.2147 38.3588 30.0856 38.3309 29.96L38.2957 29.8013C38.2691 29.6823 38.1759 29.5902 38.0575 29.5647L32.179 28.323C32.0978 28.306 32.0127 28.3222 31.9443 28.368L26.6374 31.8803C26.5305 31.9509 26.478 32.0805 26.506 32.2058L26.5411 32.365C26.5672 32.4837 26.6603 32.5761 26.7793 32.6011L27.9222 32.8425C27.7377 33.1534 27.6177 33.5281 27.5884 33.988C27.4223 34.0692 27.3076 34.2388 27.3076 34.436C27.3076 34.6244 27.4128 34.7871 27.5661 34.8725C27.5344 35.519 27.3853 36.3154 27.0327 36.5477C26.9294 36.6161 26.9009 36.7554 26.9683 36.8592C27.0367 36.9627 27.1757 36.9921 27.2795 36.9234ZM32.0715 30.6829C32.2096 30.5916 32.4454 30.5437 32.5982 30.5754C32.6749 30.5919 32.7164 30.6249 32.7217 30.6654L32.7438 30.7764C32.7491 30.8171 32.7177 30.8653 32.6485 30.9113C32.5101 31.0023 32.2746 31.0502 32.1215 31.018C32.0451 31.0015 32.0039 30.9688 31.9988 30.9286L31.9765 30.8174C31.9711 30.7761 32.0025 30.7285 32.0715 30.6829Z" fill="white"/>
</g>
<defs>
<clipPath id="clip0_251_10091">
<rect width="51.1111" height="51.1111" fill="white" transform="translate(0.944336 0.445312)"/>
</clipPath>
</defs>
</svg>
