<svg width="56" height="56" viewBox="0 0 56 56" fill="none" xmlns="http://www.w3.org/2000/svg">
<path d="M35.8665 26.4218C32.7645 26.4218 29.9667 28.0092 27.9792 30.554C26.4868 28.6603 24.5453 27.304 22.3614 26.7471C24.3489 28.5768 24.4874 29.4329 24.4952 29.5982V29.6292C24.4518 29.8491 24.2844 30.0769 24.0384 30.2918C23.7561 30.5415 23.3617 30.7796 22.9071 30.9826C22.0749 31.3579 21.0423 31.6167 20.1233 31.6167C19.1883 31.6167 18.1333 31.3501 17.2938 30.9648C16.8419 30.7569 16.4517 30.5163 16.1772 30.2654C15.9474 30.0558 15.7919 29.8412 15.7514 29.6304C15.7514 29.6292 15.7485 29.6081 15.7535 29.568C15.7729 29.3448 15.9953 28.4866 17.8873 26.748C12.9346 28.0105 9.21094 33.3794 9.21094 39.8079C9.21094 42.267 10.8397 44.2558 12.8483 44.2558L27.3961 44.2558C27.64 44.2558 27.8773 44.2261 28.1063 44.1702C28.2671 44.1967 28.4295 44.2145 28.5941 44.2145L43.1397 44.2145C45.1508 44.2145 46.7771 42.2244 46.7771 39.7665C46.7767 32.3984 41.8909 26.4209 35.8675 26.4209L35.8665 26.4218Z" fill="white"/>
<path d="M46.9641 12.3873L38.1702 6.56686C38.0565 6.49039 37.9156 6.46434 37.7808 6.49246L28.0403 8.54907C27.8435 8.5904 27.6898 8.74294 27.6451 8.94012L27.5864 9.20345C27.5405 9.41096 27.6265 9.62551 27.8047 9.74291L31.8822 12.4419L31.7041 13.248C30.1766 14.4708 29.1948 16.3483 29.1948 18.4562C29.1948 22.1394 32.182 25.1281 35.8647 25.1281C39.5474 25.1281 42.535 22.139 42.535 18.4562C42.535 17.0826 42.1183 15.8068 41.4069 14.7453L41.4168 14.7015L44.0479 14.1463C44.3753 14.6089 44.5886 15.1703 44.6424 15.8854C44.3753 16.0243 44.1901 16.3001 44.1901 16.6213C44.1901 16.8912 44.3212 17.1289 44.5208 17.2806C44.2947 18.4336 43.993 20.5534 44.5944 21.493C44.7722 21.7691 45.0231 21.9465 45.3203 22.0023C45.3435 22.0064 45.3674 22.0093 45.3906 22.0093C45.5655 22.0093 45.7213 21.8853 45.7556 21.7063C45.7936 21.5046 45.6609 21.3099 45.4592 21.271C45.3943 21.2586 45.3087 21.2272 45.2219 21.0912C45.009 20.7596 44.9598 20.1057 44.9991 19.3665C45.1822 19.9391 45.4642 20.4545 45.899 20.741C46.0714 20.8547 46.3021 20.8059 46.4141 20.6348C46.527 20.4636 46.4798 20.2321 46.3083 20.1197C45.723 19.7344 45.4766 18.4145 45.4237 17.3435C45.6787 17.2017 45.8532 16.9326 45.8532 16.6205C45.8532 16.2931 45.6618 16.0132 45.3877 15.878C45.3385 15.1158 45.1401 14.4941 44.8346 13.979L46.7283 13.5793C46.9255 13.5379 47.0793 13.3846 47.1235 13.1882L47.1822 12.9249C47.2277 12.719 47.1409 12.5041 46.964 12.3875L46.9641 12.3873ZM36.8818 10.3733C36.8905 10.3059 36.9587 10.2509 37.0856 10.2249C37.3386 10.1712 37.7296 10.2509 37.9586 10.4022C38.0735 10.4783 38.1256 10.5577 38.117 10.6251L38.0798 10.8098C38.0711 10.8772 38.0033 10.9318 37.8772 10.9578C37.623 11.012 37.2331 10.9322 37.0037 10.7813C36.8892 10.7048 36.8367 10.6255 36.8454 10.5585L36.8818 10.3733Z" fill="white"/>
<path d="M9.36909 20.3353C9.77669 20.0666 10.0408 19.5834 10.2132 19.0464C10.25 19.7388 10.2029 20.3523 10.004 20.6627C9.92261 20.79 9.842 20.8198 9.78081 20.8317C9.5919 20.8677 9.46748 21.05 9.50344 21.2393C9.53651 21.4072 9.68243 21.5233 9.84572 21.5233C9.86721 21.5233 9.88954 21.5204 9.91186 21.5167C10.1905 21.4638 10.4257 21.2976 10.5919 21.0389C11.1553 20.1579 10.873 18.1716 10.6613 17.0906C10.8482 16.948 10.9714 16.726 10.9714 16.4722C10.9714 16.1704 10.7982 15.9129 10.5472 15.7831C10.5977 15.1122 10.7982 14.5863 11.104 14.1523L13.5703 14.6736L13.7609 15.5363C13.7865 15.65 13.8361 15.7579 13.9105 15.8596C13.5654 16.6706 13.374 17.5636 13.374 18.5002C13.374 18.5002 13.369 24.4115 12.443 25.2553L27.812 25.2553C26.9055 24.431 26.8815 18.7706 26.8815 18.5122V18.5006C26.8815 15.7426 25.2251 13.3739 22.8565 12.3243L26.3288 10.0259C26.4958 9.91596 26.5764 9.71547 26.533 9.52036L26.4784 9.27399C26.4371 9.08921 26.2924 8.94617 26.1085 8.90649L16.9786 6.97803C16.8525 6.95158 16.7202 6.97679 16.614 7.04789L8.372 12.5029C8.20582 12.6124 8.12439 12.8137 8.16779 13.0084L8.22235 13.2556C8.26286 13.44 8.40755 13.5834 8.59233 13.6223L10.3673 13.9972C10.0809 14.4801 9.89442 15.062 9.84896 15.7764C9.59101 15.9024 9.41284 16.1658 9.41284 16.4721C9.41284 16.7648 9.57613 17.0173 9.81424 17.15C9.76505 18.1541 9.53356 19.391 8.98583 19.7518C8.82544 19.8581 8.7812 20.0743 8.88579 20.2355C8.99203 20.3963 9.20823 20.4418 9.36944 20.3351L9.36909 20.3353ZM16.8116 10.6432C17.0261 10.5014 17.3924 10.427 17.6297 10.4762C17.7487 10.5019 17.8132 10.5531 17.8215 10.6159L17.8558 10.7883C17.864 10.8516 17.8153 10.9264 17.7078 10.9979C17.4928 11.1393 17.127 11.2137 16.8893 11.1637C16.7707 11.138 16.7066 11.0872 16.6987 11.0248L16.664 10.852C16.6557 10.7879 16.7045 10.7139 16.8116 10.6432Z" fill="white"/>
</svg>
