<svg width="53" height="52" viewBox="0 0 53 52" fill="none" xmlns="http://www.w3.org/2000/svg">
<g clip-path="url(#clip0_251_10101)">
<rect x="12.6168" y="10.8398" width="11.6369" height="6.07143" fill="white"/>
<rect x="4.44031" y="16.3555" width="19.8587" height="16.6964" fill="white"/>
<path d="M3.34421 3.614C3.0064 3.614 2.72961 3.8905 2.72961 4.2286L2.72962 33.7229C2.72962 34.0607 3.00611 34.3375 3.34421 34.3375L25.4649 34.3375C25.8027 34.3375 26.0795 34.061 26.0795 33.7229L26.0795 4.22788C26.0795 3.89006 25.803 3.61328 25.4649 3.61328L3.34421 3.614ZM9.68562 10.7846L7.19092 10.7846C6.42275 10.7846 5.80226 10.1641 5.80226 9.39598L5.80226 8.35749C5.80226 7.59551 6.42276 6.96883 7.19092 6.96883L7.8238 6.96883L7.8238 6.68614C7.8238 6.34833 8.1003 6.07154 8.4384 6.07154C8.77622 6.07154 9.053 6.34804 9.053 6.68614L9.053 6.96883L9.68588 6.96883C10.4479 6.96883 11.0745 7.59552 11.0745 8.35749C11.0745 8.69531 10.7981 8.97209 10.4599 8.97209C10.1159 8.97209 9.84535 8.6956 9.84535 8.35749C9.84535 8.27142 9.77166 8.19772 9.68558 8.19772L7.19088 8.19772C7.10481 8.19772 7.03111 8.27142 7.03111 8.35749L7.03111 9.39598C7.03111 9.48824 7.1048 9.55576 7.19088 9.55576L9.68558 9.55576C10.4476 9.55576 11.0742 10.1763 11.0742 10.9444L11.0742 11.9829C11.0742 12.7511 10.4476 13.3716 9.68558 13.3716L9.0527 13.3716L9.0527 13.6543C9.0527 13.9983 8.7762 14.2689 8.4381 14.2689C8.10028 14.2689 7.8235 13.9986 7.8235 13.6543L7.8235 13.3716L7.19062 13.3716C6.42245 13.3716 5.80196 12.7511 5.80196 11.9829C5.80196 11.6451 6.07845 11.3683 6.41656 11.3683C6.75437 11.3683 7.03115 11.6448 7.03115 11.9829C7.03115 12.069 7.10485 12.1427 7.19092 12.1427L9.68562 12.1427C9.77169 12.1427 9.84539 12.069 9.84539 11.9829L9.84539 10.9444C9.84539 10.8583 9.7717 10.7846 9.68562 10.7846ZM22.2761 30.3613L6.53386 30.3613C6.19604 30.3613 5.91926 30.091 5.91926 29.7467C5.91926 29.4089 6.19575 29.1321 6.53386 29.1321L22.2761 29.1321C22.6139 29.1321 22.8907 29.4086 22.8907 29.7467C22.8904 30.091 22.6139 30.3613 22.2761 30.3613ZM22.2761 26.2321L6.53386 26.2321C6.19604 26.2321 5.91926 25.9556 5.91926 25.6175C5.91926 25.2797 6.19575 25.0029 6.53386 25.0029L22.2761 25.0029C22.6139 25.0029 22.8907 25.2794 22.8907 25.6175C22.8904 25.9556 22.6139 26.2321 22.2761 26.2321ZM22.2761 22.1029L6.53386 22.1029C6.19604 22.1029 5.91926 21.8264 5.91926 21.4883C5.91926 21.1505 6.19575 20.8737 6.53386 20.8737L22.2761 20.8737C22.6139 20.8737 22.8907 21.1502 22.8907 21.4883C22.8904 21.8264 22.6139 22.1029 22.2761 22.1029ZM22.2761 17.9675L6.53386 17.9675C6.19604 17.9675 5.91926 17.6972 5.91926 17.3529C5.91926 17.0151 6.19575 16.7383 6.53386 16.7383L22.2761 16.7383C22.6139 16.7383 22.8907 17.0148 22.8907 17.3529C22.8904 17.6972 22.6139 17.9675 22.2761 17.9675ZM22.2761 14.2684L14.2207 14.2684C13.8828 14.2684 13.6061 13.9981 13.6061 13.6538C13.6061 13.316 13.8825 13.0392 14.2207 13.0392L22.2761 13.0392C22.6139 13.0392 22.8907 13.3157 22.8907 13.6538C22.8904 13.9981 22.6139 14.2684 22.2761 14.2684Z" fill="white"/>
<path d="M36.2429 42.0893C36.9494 42.7958 37.8988 43.1891 38.8979 43.1891C39.8972 43.1891 40.8464 42.796 41.5528 42.0893C42.2593 41.3829 42.6526 40.4335 42.6526 39.4344C42.6526 38.435 42.2593 37.4859 41.5528 36.7794C40.8464 36.073 39.8972 35.6797 38.8979 35.6797C37.8985 35.6797 36.9494 36.073 36.2429 36.7794C35.5365 37.4859 35.1432 38.4353 35.1432 39.4344C35.1434 40.4335 35.5365 41.3829 36.2429 42.0893Z" fill="white"/>
<path d="M32.6284 40.5133C32.9603 40.5133 33.2911 40.4699 33.6113 40.383C33.82 40.3265 34.0235 40.2516 34.2193 40.16C34.1826 39.9205 34.1641 39.6783 34.1641 39.4358C34.1641 38.1752 34.6603 36.9779 35.5515 36.0866C35.7471 35.8911 35.9596 35.7128 36.1861 35.554C35.9491 34.853 35.5109 34.2392 34.925 33.7865C34.2662 33.2776 33.4607 33.0039 32.6283 33.0039C31.629 33.0039 30.6799 33.397 29.9734 34.1036C29.2669 34.8101 28.8737 35.7595 28.8737 36.7586C28.8737 37.758 29.2667 38.7071 29.9734 39.4135C30.6801 40.1203 31.6293 40.5133 32.6284 40.5133Z" fill="white"/>
<path d="M43.6339 39.4358C43.6339 39.6782 43.6157 39.9205 43.5787 40.1599C43.7745 40.2516 43.978 40.3265 44.1868 40.3829C44.5069 40.4698 44.8378 40.5133 45.1697 40.5133C46.169 40.5133 47.1182 40.1202 47.8246 39.4135C48.5313 38.7071 48.9244 37.758 48.9244 36.7586C48.9244 35.7592 48.5313 34.8101 47.8246 34.1036C47.1182 33.3972 46.169 33.0039 45.1697 33.0039C44.3373 33.0039 43.5318 33.2776 42.873 33.7865C42.2872 34.2392 41.8487 34.8533 41.6119 35.554C41.8384 35.7125 42.0509 35.8911 42.2465 36.0866C43.1377 36.9778 43.6339 38.1754 43.6339 39.4358Z" fill="white"/>
<path d="M33.9694 44.4035C34.717 43.9628 35.5596 43.6584 36.4066 43.4651C36.096 43.2725 35.8081 43.0443 35.5496 42.7858C35.2315 42.4677 34.9593 42.1052 34.7428 41.7106C34.4372 41.6464 34.1283 41.597 33.8178 41.562C33.4225 41.5173 33.0243 41.4961 32.6262 41.4961C31.1364 41.4961 29.4918 41.806 28.1955 42.5704C27.3631 43.0611 26.4987 43.8669 26.4987 44.9082L26.4987 47.6234C26.4987 48.1578 27.6139 48.602 28.0097 48.7451C28.5656 48.9461 29.1534 49.0855 29.735 49.1868C30.4127 49.3052 31.1019 49.3739 31.7894 49.4046L31.7894 47.5854C31.7894 46.17 32.8157 45.084 33.9694 44.4036V44.4035Z" fill="white"/>
<path d="M43.3303 45.2462C42.0343 44.4818 40.3894 44.1719 38.8996 44.1719C37.4098 44.1719 35.765 44.4818 34.4689 45.2462C33.6366 45.7369 32.7721 46.5427 32.7721 47.584L32.7721 50.2991C32.7721 50.8578 33.9665 51.3127 34.379 51.4556C35.029 51.6803 35.7215 51.8264 36.4015 51.9251C37.2268 52.0447 38.0661 52.0976 38.8996 52.0976C39.7332 52.0976 40.5725 52.0449 41.3978 51.9251C42.0775 51.8264 42.7702 51.6803 43.4202 51.4556C43.8327 51.313 45.0272 50.858 45.0272 50.2991L45.0272 47.584C45.0272 46.5429 44.1624 45.7368 43.3303 45.2462Z" fill="white"/>
<path d="M49.6004 42.5704C48.3045 41.806 46.6596 41.4961 45.1697 41.4961C44.7719 41.4961 44.3736 41.5176 43.9781 41.562C43.6677 41.597 43.3588 41.6464 43.0531 41.7106C42.8369 42.1051 42.5644 42.4677 42.2463 42.7858C41.9876 43.0443 41.6997 43.2725 41.3893 43.4653C42.2361 43.6584 43.0789 43.9628 43.8262 44.4035C44.9802 45.084 46.0065 46.17 46.0065 47.5854L46.0065 49.4045C46.6937 49.3738 47.3829 49.3051 48.0606 49.1868C48.6422 49.0854 49.2303 48.9461 49.7859 48.745C50.1819 48.6019 51.2969 48.1577 51.2969 47.6233L51.2969 44.9081C51.2972 43.8671 50.4326 43.0612 49.6004 42.5703L49.6004 42.5704Z" fill="white"/>
</g>
<defs>
<clipPath id="clip0_251_10101">
<rect width="51.6667" height="51.6667" fill="white" transform="translate(0.666626 0.167969)"/>
</clipPath>
</defs>
</svg>
