<svg width="46" height="36" viewBox="0 0 46 36" fill="none" xmlns="http://www.w3.org/2000/svg">
<path d="M34.9094 17.3484C35.3312 17.7703 35.9035 18.0076 36.5001 18.0076C37.097 18.0076 37.6693 17.7703 38.0907 17.3484L44.8407 10.5984C45.263 10.1766 45.5003 9.60432 45.5003 9.00776C45.5003 8.41079 45.263 7.83854 44.8407 7.41666L38.0907 0.666662C37.5226 0.0985335 36.6941 -0.123531 35.9179 0.0845272C35.1413 0.292585 34.5349 0.899031 34.3268 1.67521C34.1191 2.4518 34.3408 3.27991 34.9093 3.84839L37.8183 6.75743H14.0003C13.1966 6.75743 12.4537 7.18631 12.0516 7.88257C11.6494 8.57883 11.6495 9.43655 12.0516 10.1324C12.4537 10.8287 13.1965 11.2576 14.0003 11.2576H37.8183L34.9089 14.167H34.9093C34.487 14.5885 34.2501 15.1607 34.2501 15.7577C34.2501 16.3543 34.4871 16.9266 34.9094 17.3484Z" fill="white"/>
<path d="M7.90919 35.3479C8.47897 35.9078 9.30338 36.1233 10.0742 35.9144C10.8454 35.7051 11.4477 35.1028 11.6566 34.3319C11.8659 33.5607 11.6504 32.7367 11.0905 32.1666L8.18149 29.2575H31.9995C32.8033 29.2575 33.5461 28.8287 33.9482 28.1324C34.3504 27.4361 34.3503 26.5784 33.9482 25.8825C33.5462 25.1863 32.8034 24.7574 31.9995 24.7574H8.18149L11.091 21.8479H11.0905C11.6533 21.2786 11.8704 20.4533 11.662 19.6804C11.4531 18.908 10.8495 18.3044 10.0767 18.0956C9.30419 17.8867 8.47861 18.1042 7.90918 18.6666L1.15918 25.4166C0.736893 25.8385 0.5 26.4107 0.5 27.0073C0.5 27.6042 0.736893 28.1765 1.15918 28.5984L7.90919 35.3479Z" fill="white"/>
</svg>
